<mxfile host="app.diagrams.net" modified="2020-09-05T12:28:51.479Z" agent="5.0 (Windows NT 10.0; Win64; x64) AppleWebKit/537.36 (KHTML, like Gecko) Chrome/84.0.4147.135 Safari/537.36" etag="ZKp6d2bfstpKgbL9uaak" version="13.6.6" type="github">
  <diagram name="HomePage" id="03018318-947c-dd8e-b7a3-06fadd420f32">
    <mxGraphModel dx="2216" dy="900" grid="1" gridSize="10" guides="1" tooltips="1" connect="1" arrows="1" fold="1" page="1" pageScale="1" pageWidth="1600" pageHeight="900" background="#ffffff" math="0" shadow="0">
      <root>
        <mxCell id="0" />
        <mxCell id="1" parent="0" />
        <mxCell id="677b7b8949515195-2" value="LOGO" style="whiteSpace=wrap;html=1;rounded=0;shadow=0;labelBackgroundColor=none;strokeWidth=1;fontFamily=Verdana;fontSize=28;align=center;comic=1;fillColor=#bac8d3;strokeColor=#23445d;" parent="1" vertex="1">
          <mxGeometry x="30" y="20" width="240" height="130" as="geometry" />
        </mxCell>
        <mxCell id="677b7b8949515195-11" value="Section 1" style="text;html=1;points=[];align=left;verticalAlign=top;spacingTop=-4;fontSize=14;fontFamily=Verdana;fillColor=#dae8fc;strokeColor=#6c8ebf;" parent="1" vertex="1">
          <mxGeometry x="10" y="210" width="220" height="50" as="geometry" />
        </mxCell>
        <mxCell id="677b7b8949515195-12" value="Section 2" style="text;html=1;points=[];align=left;verticalAlign=top;spacingTop=-4;fontSize=14;fontFamily=Verdana;fillColor=#d5e8d4;strokeColor=#82b366;" parent="1" vertex="1">
          <mxGeometry x="250" y="210" width="230" height="50" as="geometry" />
        </mxCell>
        <mxCell id="677b7b8949515195-13" value="Section 3" style="text;html=1;points=[];align=left;verticalAlign=top;spacingTop=-4;fontSize=14;fontFamily=Verdana;fillColor=#fff2cc;strokeColor=#d6b656;" parent="1" vertex="1">
          <mxGeometry x="500" y="210" width="260" height="50" as="geometry" />
        </mxCell>
        <object label="Section 4" id="677b7b8949515195-14">
          <mxCell style="text;html=1;points=[];align=left;verticalAlign=top;spacingTop=-4;fontSize=14;fontFamily=Verdana;fillColor=#f8cecc;strokeColor=#b85450;" parent="1" vertex="1">
            <mxGeometry x="780" y="210" width="250" height="50" as="geometry" />
          </mxCell>
        </object>
        <mxCell id="677b7b8949515195-16" value="" style="verticalLabelPosition=bottom;shadow=0;dashed=0;align=center;html=1;verticalAlign=top;strokeWidth=1;shape=mxgraph.mockup.graphics.simpleIcon;strokeColor=#666666;rounded=0;labelBackgroundColor=none;fontFamily=Verdana;fontSize=14;fontColor=#333333;comic=1;fillColor=#f5f5f5;" parent="1" vertex="1">
          <mxGeometry x="480" y="330" width="1035" height="540" as="geometry" />
        </mxCell>
        <mxCell id="677b7b8949515195-25" value="" style="whiteSpace=wrap;html=1;rounded=0;shadow=0;labelBackgroundColor=none;strokeWidth=1;fillColor=#f9f7ed;fontFamily=Verdana;fontSize=12;align=center;comic=1;strokeColor=#36393d;" parent="1" vertex="1">
          <mxGeometry x="130" y="320" width="230" height="540" as="geometry" />
        </mxCell>
        <mxCell id="677b7b8949515195-44" value="Feature 1" style="text;html=1;points=[];align=left;verticalAlign=top;spacingTop=-4;fontSize=14;fontFamily=Verdana;fillColor=#dae8fc;strokeColor=#6c8ebf;" parent="1" vertex="1">
          <mxGeometry x="130" y="380" width="230" height="50" as="geometry" />
        </mxCell>
        <mxCell id="677b7b8949515195-45" value="Feature 2" style="text;html=1;points=[];align=left;verticalAlign=top;spacingTop=-4;fontSize=14;fontFamily=Verdana;fillColor=#dae8fc;strokeColor=#6c8ebf;" parent="1" vertex="1">
          <mxGeometry x="130" y="500" width="230" height="50" as="geometry" />
        </mxCell>
        <mxCell id="677b7b8949515195-46" value="Feature 3" style="text;html=1;points=[];align=left;verticalAlign=top;spacingTop=-4;fontSize=14;fontFamily=Verdana;fillColor=#dae8fc;strokeColor=#6c8ebf;" parent="1" vertex="1">
          <mxGeometry x="130" y="620" width="230" height="50" as="geometry" />
        </mxCell>
        <mxCell id="677b7b8949515195-47" value="Feature 4" style="text;html=1;points=[];align=left;verticalAlign=top;spacingTop=-4;fontSize=14;fontFamily=Verdana;fillColor=#dae8fc;strokeColor=#6c8ebf;" parent="1" vertex="1">
          <mxGeometry x="130" y="740" width="230" height="50" as="geometry" />
        </mxCell>
        <mxCell id="2wtRj8eXPCuKTEidl7SX-1" value="" style="rounded=1;whiteSpace=wrap;html=1;strokeWidth=2;fillWeight=4;hachureGap=8;hachureAngle=45;fillColor=#1ba1e2;sketch=1;" parent="1" vertex="1">
          <mxGeometry x="350" y="20" width="810" height="130" as="geometry" />
        </mxCell>
        <mxCell id="XxOdompuO8sJZTis7wyL-3" value="" style="rounded=1;whiteSpace=wrap;html=1;strokeColor=#0000CC;fillColor=#FFCC99;" vertex="1" parent="1">
          <mxGeometry x="1245" y="20" width="310" height="130" as="geometry" />
        </mxCell>
        <mxCell id="XxOdompuO8sJZTis7wyL-6" value="" style="rounded=0;whiteSpace=wrap;html=1;strokeColor=#0000CC;fillColor=#CCFFE6;" vertex="1" parent="1">
          <mxGeometry x="1050" y="210" width="250" height="50" as="geometry" />
        </mxCell>
        <mxCell id="XxOdompuO8sJZTis7wyL-7" value="" style="rounded=0;whiteSpace=wrap;html=1;strokeColor=#0000CC;fillColor=#FFCCFF;" vertex="1" parent="1">
          <mxGeometry x="1320" y="210" width="250" height="50" as="geometry" />
        </mxCell>
      </root>
    </mxGraphModel>
  </diagram>
</mxfile>
